<svg xmlns="http://www.w3.org/2000/svg" xmlns:xlink="http://www.w3.org/1999/xlink" viewBox="0 0 1162 662"><defs><style>.cls-1{fill:url(#linear-gradient);}.cls-2{fill:url(#linear-gradient-2);}.cls-3{fill:url(#linear-gradient-3);}.cls-4{fill:url(#linear-gradient-4);}.cls-5{fill:url(#linear-gradient-5);}.cls-6{fill:url(#linear-gradient-6);}.cls-7{fill:url(#linear-gradient-7);}.cls-8{fill:url(#linear-gradient-8);}.cls-9{fill:#3acce1;}.cls-10{fill:#ffb510;}.cls-11{fill:#ff9057;}.cls-12{fill:#ff4f9a;}.cls-13{font-size:108.34px;fill:#f9f9f9;}.cls-13,.cls-14,.cls-15,.cls-16{font-family:MyriadHebrew-Regular, Myriad Hebrew;}.cls-14{font-size:127.69px;}.cls-14,.cls-15,.cls-16{fill:#fff;}.cls-15{font-size:19.27px;}.cls-16{font-size:20.14px;}</style><linearGradient id="linear-gradient" x1="276.52" y1="431.96" x2="276.52" y2="698.01" gradientUnits="userSpaceOnUse"><stop offset="0" stop-color="#e95ea4"/><stop offset="1" stop-color="#12204e"/></linearGradient><linearGradient id="linear-gradient-2" x1="468.89" y1="446.14" x2="468.89" y2="695.79" xlink:href="#linear-gradient"/><linearGradient id="linear-gradient-3" x1="857.52" y1="31.68" x2="857.52" y2="542.6" xlink:href="#linear-gradient"/><linearGradient id="linear-gradient-4" x1="581" y1="-5.11" x2="581" y2="647.71" xlink:href="#linear-gradient"/><linearGradient id="linear-gradient-5" x1="681.21" y1="458.13" x2="681.21" y2="693.91" xlink:href="#linear-gradient"/><linearGradient id="linear-gradient-6" x1="931.29" y1="158.14" x2="931.29" y2="529.96" xlink:href="#linear-gradient"/><linearGradient id="linear-gradient-7" x1="1051.18" y1="306.71" x2="1051.18" y2="483.97" xlink:href="#linear-gradient"/><linearGradient id="linear-gradient-8" x1="903.77" y1="353.13" x2="903.77" y2="710.35" xlink:href="#linear-gradient"/></defs><title>Asset 1</title><g id="Layer_2" data-name="Layer 2"><g id="Layer_1-2" data-name="Layer 1"><path class="cls-1" d="M234.5,461.5C153.87,486.51,56.68,533,0,559.35V662H237.2L553,448.1C458.6,431.8,360.19,422.52,234.5,461.5Z"/><path class="cls-2" d="M553,448.1,237.2,662H422.07l278.5-188.55C650.28,467,602.2,456.58,553,448.1ZM530,555a24,24,0,1,1,24-24A24,24,0,0,1,530,555Z"/><path class="cls-3" d="M1121,146.5a59.5,59.5,0,0,1-119,0c0-.84,0-1.68.06-2.51L553,448.1c49.16,8.48,97.24,18.87,147.53,25.35L1162,161.05V35.67l-80.76,54.7A59.5,59.5,0,0,1,1121,146.5Z"/><path class="cls-4" d="M234.5,461.5c125.69-39,224.1-29.7,318.54-13.4l449-304.11a59.49,59.49,0,0,1,79.18-53.62L1162,35.67V0H0V559.35C56.68,533,153.87,486.51,234.5,461.5ZM719,67.5A28.5,28.5,0,1,1,690.5,96,28.5,28.5,0,0,1,719,67.5Z"/><path class="cls-5" d="M700.57,473.45,422.07,662H645.54L940.35,460C849.42,484,772.72,482.75,700.57,473.45ZM672.5,599A25.5,25.5,0,1,1,698,573.5,25.5,25.5,0,0,1,672.5,599Z"/><path class="cls-6" d="M940.35,460,1162,308.09v-147L700.57,473.45C772.72,482.75,849.42,484,940.35,460ZM1005,323a29,29,0,1,1-29,29A29,29,0,0,1,1005,323Z"/><path class="cls-7" d="M940.35,460c5.34-1.41,10.72-2.89,16.15-4.48,88.16-25.71,157.21-65.72,205.5-99.57V308.09Z"/><path class="cls-8" d="M940.35,460,645.54,662H1162V355.93c-48.29,33.85-117.34,73.86-205.5,99.57C951.07,457.09,945.69,458.57,940.35,460Z"/><circle class="cls-9" cx="719" cy="96" r="28.5"/><path class="cls-10" d="M1061.5,87a59.5,59.5,0,0,0-59.44,57l79.18-53.62A59.21,59.21,0,0,0,1061.5,87Z"/><path class="cls-10" d="M1061.5,206a59.5,59.5,0,0,0,19.74-115.63L1002.06,144c0,.83-.06,1.67-.06,2.51A59.5,59.5,0,0,0,1061.5,206Z"/><circle class="cls-11" cx="1005" cy="352" r="29"/><circle class="cls-12" cx="672.5" cy="573.5" r="25.5"/><circle class="cls-11" cx="530" cy="531" r="24"/><text class="cls-13" transform="translate(576.58 256.24)">Summer</text><text class="cls-14" transform="translate(603.14 397.1)">TRENDS</text><text></text><text></text><text class="cls-15" transform="translate(543.24 82.04)">70% ON ALL STORE</text><text class="cls-16" transform="translate(609.48 112.86)">25-29.5</text></g></g></svg>